HIERARCHY
ROOT Hips
{
	OFFSET 0.00000 0.00000 0.00000
	CHANNELS 6 Xposition Yposition Zposition Zrotation Yrotation Xrotation 
	JOINT LHipJoint
	{
		OFFSET 0 0 0
		CHANNELS 3 Zrotation Yrotation Xrotation
		JOINT LeftUpLeg
		{
			OFFSET 1.54859 -1.61379 0.86856
			CHANNELS 3 Zrotation Yrotation Xrotation
			JOINT LeftLeg
			{
				OFFSET 2.25087 -6.18423 0.00000
				CHANNELS 3 Zrotation Yrotation Xrotation
				JOINT LeftFoot
				{
					OFFSET 2.40328 -6.60297 0.00000
					CHANNELS 3 Zrotation Yrotation Xrotation
					JOINT LeftToeBase
					{
						OFFSET 0.17435 -0.47901 2.02453
						CHANNELS 3 Zrotation Yrotation Xrotation
						End Site
						{
							OFFSET 0.00000 -0.00000 1.04844
						}
					}
				}
			}
		}
	}
	JOINT RHipJoint
	{
		OFFSET 0 0 0
		CHANNELS 3 Zrotation Yrotation Xrotation
		JOINT RightUpLeg
		{
			OFFSET -1.54669 -1.61379 0.86856
			CHANNELS 3 Zrotation Yrotation Xrotation
			JOINT RightLeg
			{
				OFFSET -2.28132 -6.26789 0.00000
				CHANNELS 3 Zrotation Yrotation Xrotation
				JOINT RightFoot
				{
					OFFSET -2.51636 -6.91365 0.00000
					CHANNELS 3 Zrotation Yrotation Xrotation
					JOINT RightToeBase
					{
						OFFSET -0.15124 -0.41552 2.21090
						CHANNELS 3 Zrotation Yrotation Xrotation
						End Site
						{
							OFFSET -0.00000 -0.00000 1.13399
						}
					}
				}
			}
		}
	}
	JOINT LowerBack
	{
		OFFSET 0 0 0
		CHANNELS 3 Zrotation Yrotation Xrotation
		JOINT Spine
		{
			OFFSET -0.04287 2.26161 -0.25690
			CHANNELS 3 Zrotation Yrotation Xrotation
			JOINT Spine1
			{
				OFFSET 0.02248 2.28395 -0.10140
				CHANNELS 3 Zrotation Yrotation Xrotation
				JOINT Neck
				{
					OFFSET 0 0 0
					CHANNELS 3 Zrotation Yrotation Xrotation
					JOINT Neck1
					{
						OFFSET -0.11644 1.38496 0.11345
						CHANNELS 3 Zrotation Yrotation Xrotation
						JOINT Head
						{
							OFFSET 0.29383 1.36600 0.06642
							CHANNELS 3 Zrotation Yrotation Xrotation
							End Site
							{
								OFFSET 0.11075 1.41395 -0.00294
							}
						}
					}
				}
				JOINT LeftShoulder
				{
					OFFSET 0 0 0
					CHANNELS 3 Zrotation Yrotation Xrotation
					JOINT LeftArm
					{
						OFFSET 3.51628 0.59542 -0.30346
						CHANNELS 3 Zrotation Yrotation Xrotation
						JOINT LeftForeArm
						{
							OFFSET 4.76405 -0.00000 0.00000
							CHANNELS 3 Zrotation Yrotation Xrotation
							JOINT LeftHand
							{
								OFFSET 3.13759 -0.00000 -0.00000
								CHANNELS 3 Zrotation Yrotation Xrotation
								JOINT LeftFingerBase
								{
									OFFSET 0 0 0
									CHANNELS 3 Zrotation Yrotation Xrotation
									JOINT LeftHandIndex1
									{
										OFFSET 0.73226 -0.00000 -0.00000
										CHANNELS 3 Zrotation Yrotation Xrotation
										End Site
										{
											OFFSET 0.59037 -0.00000 -0.00000
										}
									}
								}
								JOINT LThumb
								{
									OFFSET 0 0 0
									CHANNELS 3 Zrotation Yrotation Xrotation
									End Site
									{
										OFFSET 0.59938 -0.00000 0.59938
									}
								}
							}
						}
					}
				}
				JOINT RightShoulder
				{
					OFFSET 0 0 0
					CHANNELS 3 Zrotation Yrotation Xrotation
					JOINT RightArm
					{
						OFFSET -3.30990 0.84213 -0.36430
						CHANNELS 3 Zrotation Yrotation Xrotation
						JOINT RightForeArm
						{
							OFFSET -5.10161 -0.00000 -0.00000
							CHANNELS 3 Zrotation Yrotation Xrotation
							JOINT RightHand
							{
								OFFSET -3.23267 -0.00000 -0.00000
								CHANNELS 3 Zrotation Yrotation Xrotation
								JOINT RightFingerBase
								{
									OFFSET 0 0 0
									CHANNELS 3 Zrotation Yrotation Xrotation
									JOINT RightHandIndex1
									{
										OFFSET -0.70200 -0.00000 -0.00000
										CHANNELS 3 Zrotation Yrotation Xrotation
										End Site
										{
											OFFSET -0.56597 -0.00000 -0.00000
										}
									}
								}
								JOINT RThumb
								{
									OFFSET 0 0 0
									CHANNELS 3 Zrotation Yrotation Xrotation
									End Site
									{
										OFFSET -0.57461 -0.00000 0.57461
									}
								}
							}
						}
					}
				}
			}
		}
	}
}
MOTION
Frames: 14
Frame Time: .0083333
-1.1512 14.9105 -2.3489 181.1360 -34.6414 -164.4160 0.0000 0.0000 0.0000 -5.9487 -1.4873 -51.7015 12.2407 18.4906 66.7498 0.0564 -10.9850 -8.5323 0.9513 -6.2114 -17.3991 0.0000 0.0000 0.0000 28.3480 -12.8041 -58.0424 -14.7105 -19.3155 74.3630 -1.0737 14.4623 -19.7515 -1.4152 7.5239 -21.2769 -7.7542 5.3305 36.3734 3.3989 1.3953 12.1856 7.2486 -0.7555 -4.9120 -16.2598 -9.7684 -3.8787 39.5754 -11.2369 -24.0446 16.8085 -8.7586 -1.9143 -0.0000 -0.0000 0.0000 -24.8239 -35.2302 -49.4967 16.6369 -26.3766 -3.9246 -0.0000 0.0000 -49.9444 -34.5520 34.9347 -21.5209 -7.1250 0.0000 -0.0000 -67.2702 53.0511 -20.5639 -0.0000 -0.0000 0.0000 69.0928 26.6003 0.3017 -14.2898 23.1475 -2.9411 0.0000 0.0000 9.3664 -43.9877 32.2256 -27.2366 7.1250 -0.0000 -0.0000 -6.5360 11.0058 -7.7089
-1.0127 14.9945 -2.5138 181.9270 -33.2253 -164.3280 0.0000 0.0000 0.0000 -5.9656 -2.3084 -51.9531 12.2124 18.4790 66.6606 -0.0890 -12.6478 -7.6466 1.1492 -6.8068 -19.1442 0.0000 0.0000 0.0000 29.2782 -13.3152 -58.2900 -14.6365 -19.2958 74.1393 -0.5820 17.0443 -17.0185 -1.8494 8.5452 -24.3826 -7.6495 5.5903 36.1661 3.2153 1.7378 12.1930 6.8734 -0.5920 -4.8753 -17.2028 -10.0235 -3.2755 40.9794 -11.5819 -24.9475 17.7538 -9.1798 -1.8905 -0.0000 0.0000 0.0000 -26.5562 -33.7025 -44.7865 19.6207 -30.1827 -5.3393 -0.0000 0.0000 -56.4313 -37.4952 35.4263 -23.9751 -7.1250 0.0000 -0.0000 -69.8285 52.7485 -21.5584 -0.0000 0.0000 0.0000 69.9526 25.4920 -1.1688 -14.5925 23.5753 -3.0611 0.0000 0.0000 8.4711 -43.6535 31.3206 -26.3791 7.1250 -0.0000 -0.0000 -6.6179 9.8480 -7.6994
-0.8753 15.0657 -2.6839 182.5870 -31.8599 -164.1900 0.0000 0.0000 0.0000 -5.9858 -3.2185 -52.0717 12.1491 18.4530 66.4608 -0.2151 -13.7209 -6.7439 0.9144 -6.0930 -17.0544 0.0000 0.0000 0.0000 29.9324 -13.7329 -58.3676 -14.5534 -19.2734 73.8876 -0.1655 18.9031 -14.7067 -2.5185 9.8715 -28.5615 -7.5393 5.8509 35.9453 2.9669 2.0955 12.1516 6.4223 -0.4095 -4.8809 -16.6572 -10.4304 -2.9009 41.6721 -12.1334 -25.7416 17.9570 -9.7343 -1.9588 0.0000 -0.0000 0.0000 -28.3495 -32.6828 -41.2859 23.0607 -34.1551 -7.1724 -0.0000 0.0000 -61.6529 -39.8206 36.3991 -26.3248 -7.1250 0.0000 -0.0000 -72.5279 52.8091 -23.5539 0.0000 -0.0000 0.0000 71.0033 24.0837 -2.2879 -14.9577 24.0871 -3.2087 0.0000 0.0000 7.1434 -43.4591 30.7694 -25.8632 7.1250 -0.0000 -0.0000 -6.6683 9.1443 -7.6914
-0.7431 15.1272 -2.8569 183.0530 -30.4349 -164.0740 0.0000 0.0000 0.0000 -6.1888 -4.0607 -51.9331 12.0479 18.4108 66.1407 -0.2515 -14.1030 -6.5756 0.8352 -5.8300 -16.2920 0.0000 0.0000 0.0000 30.1601 -14.0144 -58.1070 -14.4755 -19.2519 73.6514 0.2213 20.4159 -12.5039 -2.2780 9.4227 -27.1266 -7.5999 6.1977 35.8232 2.8076 2.5140 12.0279 6.1331 -0.1936 -5.0246 -18.4681 -10.5493 -1.9049 43.2264 -12.3990 -26.1079 19.2269 -10.0009 -1.7366 -0.0000 0.0000 0.0000 -30.5226 -31.9591 -38.4280 26.7921 -37.9802 -9.3709 -0.0000 0.0000 -65.8516 -41.5200 37.1110 -28.1104 -7.1250 0.0000 -0.0000 -74.5078 52.8345 -25.0946 -0.0000 0.0000 0.0000 71.8440 22.2170 -2.8350 -15.4586 24.7810 -3.4158 0.0000 0.0000 4.8992 -43.3067 30.4992 -25.5656 7.1250 -0.0000 -0.0000 -6.6608 8.7745 -7.6470
-0.6132 15.1769 -3.0321 183.4670 -29.0609 -164.0460 0.0000 0.0000 0.0000 -6.3882 -4.9097 -51.6010 11.9161 18.3550 65.7227 -0.2102 -13.9825 -7.0670 0.8681 -5.9408 -16.6127 0.0000 0.0000 0.0000 30.2299 -14.2604 -57.6298 -14.3006 -19.2027 73.1204 0.1419 18.5778 -11.7583 -1.7783 8.3882 -23.8996 -7.6614 6.5268 35.7934 2.6730 2.9047 11.8740 5.8784 0.0103 -5.2284 -17.9119 -11.0532 -1.3037 43.5611 -13.0834 -26.6797 19.1970 -10.5467 -1.7784 0.0000 0.0000 0.0000 -32.8378 -31.4406 -37.2064 30.7547 -41.5315 -11.9068 -0.0000 0.0000 -70.8984 -43.3387 38.9433 -30.6730 -7.1250 0.0000 -0.0000 -78.0412 53.3233 -29.1473 0.0000 0.0000 0.0000 72.6742 20.2417 -3.4177 -15.9576 25.4631 -3.6277 0.0000 0.0000 2.7648 -43.2075 30.3015 -25.3577 7.1250 -0.0000 -0.0000 -6.6614 8.5092 -7.6218
-0.4872 15.2180 -3.2098 183.7820 -27.8495 -164.0910 0.0000 0.0000 0.0000 -6.5547 -5.9103 -51.0450 11.7553 18.2853 65.2111 -0.1571 -13.6395 -7.5134 0.8104 -5.7448 -16.0457 0.0000 0.0000 0.0000 30.0261 -14.6482 -57.0192 -13.9918 -19.1116 72.1795 -0.4987 12.4755 -14.3162 -1.8793 8.6101 -24.5831 -7.7568 6.6765 35.7989 2.4364 3.0249 11.7867 5.6305 0.0727 -5.3269 -17.8018 -11.2168 -0.9910 44.0340 -13.3985 -26.6469 19.3548 -10.8106 -1.6551 0.0000 -0.0000 0.0000 -35.0080 -30.7180 -36.8517 35.9882 -45.5050 -15.5141 -0.0000 0.0000 -74.9237 -37.9873 40.0314 -26.6704 -7.1250 0.0000 -0.0000 -75.9230 54.9348 -30.8137 0.0000 -0.0000 0.0000 73.8301 18.7496 -4.0497 -16.2439 25.8503 -3.7517 0.0000 0.0000 1.3771 -43.1777 30.6887 -25.5897 7.1250 -0.0000 -0.0000 -6.5388 8.9344 -7.5204
-0.3428 15.2565 -3.4045 184.3250 -25.6896 -164.4020 0.0000 0.0000 0.0000 -6.6465 -5.5835 -50.2250 11.5899 18.2119 64.6830 -0.1447 -13.7304 -7.7653 0.8605 -5.9153 -16.5389 0.0000 0.0000 0.0000 29.2217 -13.7530 -55.2172 -13.5460 -18.9705 70.8131 -0.8076 6.6591 -16.0405 -2.2313 9.3321 -26.8397 -8.4799 7.4579 35.6125 2.2828 3.7180 11.7617 5.5851 0.3770 -5.3978 -15.1553 -11.8257 -1.2621 43.2141 -14.1385 -26.8171 18.1302 -11.3353 -1.8475 0.0000 0.0000 0.0000 -37.3017 -30.2777 -35.1035 41.5719 -48.9741 -19.6170 -0.0000 0.0000 -73.9131 -36.8526 39.7692 -25.6164 -7.1250 0.0000 -0.0000 -74.8009 55.0640 -30.1296 0.0000 0.0000 0.0000 74.9317 17.2442 -4.6627 -16.5179 26.2178 -3.8719 0.0000 0.0000 0.0327 -43.1071 30.8438 -25.6361 7.1250 -0.0000 -0.0000 -6.4578 9.0796 -7.4397
-0.2130 15.2757 -3.5891 184.5260 -24.2254 -164.3460 0.0000 0.0000 0.0000 -6.9526 -5.8728 -49.6898 11.4434 18.1453 64.2133 -0.1651 -14.1337 -7.8364 1.0294 -6.4536 -18.1064 0.0000 0.0000 0.0000 27.8568 -12.9351 -53.6743 -13.1309 -18.8289 69.5317 -0.8586 1.0752 -17.1806 -2.8535 10.4540 -30.4599 -8.6233 7.8109 35.1949 2.1419 4.1558 11.6985 5.3589 0.5931 -5.3754 -15.3177 -12.2019 -0.5918 43.6577 -14.6683 -26.9990 18.3188 -11.6886 -1.7594 0.0000 -0.0000 0.0000 -39.4205 -30.6199 -33.4044 46.2717 -51.3765 -23.2281 -0.0000 0.0000 -70.7082 -38.9396 36.3466 -25.5897 -7.1250 0.0000 -0.0000 -71.8922 52.9536 -23.4161 0.0000 -0.0000 0.0000 75.9222 15.6132 -5.6696 -16.7798 26.5666 -3.9884 0.0000 -0.0000 -0.8510 -43.0893 30.0350 -25.0895 7.1250 -0.0000 -0.0000 -6.6698 8.1575 -7.5969
-0.0986 15.2641 -3.7594 184.6120 -23.7366 -164.0700 0.0000 0.0000 0.0000 -7.1714 -6.9469 -49.5146 11.3622 18.1078 63.9523 -0.2146 -14.6433 -7.6246 0.8636 -5.9259 -16.5696 0.0000 0.0000 0.0000 26.2522 -12.5901 -52.5053 -12.7617 -18.6944 68.3837 -0.7917 -2.3330 -17.8075 -2.6547 10.1138 -29.3462 -7.8536 7.4306 34.7888 1.8576 4.0258 11.5208 4.7260 0.5895 -5.3488 -15.5897 -12.5815 0.1984 44.2844 -15.2424 -27.1359 18.6142 -12.0826 -1.6167 -0.0000 0.0000 0.0000 -41.1455 -31.0752 -31.5746 51.2533 -53.4886 -27.1783 -0.0000 0.0000 -69.8468 -36.6207 34.6269 -22.8954 -7.1250 0.0000 -0.0000 -68.3063 52.4775 -20.0130 -0.0000 0.0000 0.0000 77.2627 14.1358 -7.3370 -16.8902 26.7127 -4.0378 0.0000 -0.0000 -0.9045 -42.5743 29.9321 -24.6275 7.1250 -0.0000 -0.0000 -6.4171 7.8289 -7.2742
0.0390 15.2430 -3.9461 185.1150 -22.7415 -164.2750 0.0000 0.0000 0.0000 -7.1046 -6.8079 -48.9867 11.3585 18.1061 63.9405 -0.2130 -14.9523 -7.9305 0.5545 -4.7698 -13.2533 0.0000 0.0000 0.0000 24.8786 -12.3726 -50.9884 -12.4365 -18.5692 67.3660 -0.7726 -3.7935 -18.4024 -2.0961 9.0634 -25.9939 -7.5103 7.4334 34.4660 1.7751 4.1998 11.3944 4.4105 0.6980 -5.3692 -16.1268 -12.8988 0.8244 45.0074 -15.8142 -27.0185 18.9561 -12.4284 -1.3121 0.0000 -0.0000 0.0000 -42.5755 -31.4629 -30.2113 55.9192 -55.1207 -30.9687 -0.0000 0.0000 -69.4902 -36.8271 33.6004 -22.5092 -7.1250 0.0000 -0.0000 -67.2543 51.8562 -18.0696 0.0000 -0.0000 0.0000 78.2944 12.4902 -8.4035 -17.1441 27.0473 -4.1526 0.0000 -0.0000 -1.9457 -41.4354 30.2417 -23.9690 7.1250 -0.0000 -0.0000 -5.7131 7.7221 -6.4591
0.1764 15.2160 -4.1352 185.7310 -21.6054 -164.6350 0.0000 0.0000 0.0000 -6.9687 -6.1918 -48.2216 11.4307 18.1395 64.1725 -0.1167 -14.7072 -8.9472 0.3927 -4.0239 -11.1439 0.0000 0.0000 0.0000 23.3195 -11.4094 -49.0628 -12.1178 -18.4400 66.3617 -0.7675 -5.0438 -19.1342 -1.4682 7.6574 -21.6781 -7.1281 7.4963 34.0546 1.7230 4.4626 11.3841 4.0859 0.8419 -5.3719 -16.2539 -13.0537 1.3523 45.1559 -16.1071 -26.8432 19.0102 -12.5807 -1.2228 -0.0000 0.0000 0.0000 -43.7896 -31.8854 -28.8269 61.9444 -56.8062 -35.9636 -0.0000 0.0000 -71.0128 -35.0262 36.1894 -22.4820 -7.1250 0.0000 -0.0000 -69.0737 53.6489 -22.9340 -0.0000 0.0000 0.0000 79.0148 10.4653 -8.4570 -17.5946 27.6350 -4.3596 0.0000 -0.0000 -3.9382 -41.1844 28.7785 -22.8420 7.1250 -0.0000 -0.0000 -5.9520 5.9695 -6.5726
0.3094 15.1787 -4.3223 186.3980 -20.4274 -165.1190 0.0000 0.0000 0.0000 -6.6084 -5.3755 -47.1989 11.5552 18.1962 64.5718 0.3224 -11.6028 -12.1528 0.8678 -5.9398 -16.6099 0.0000 0.0000 0.0000 21.8491 -10.6382 -47.2333 -11.8127 -18.3103 65.3938 -0.6853 -6.4840 -19.3187 -1.5970 7.9707 -22.6252 -6.6459 7.5858 33.8232 1.7029 4.7673 11.2732 3.7147 1.0053 -5.4120 -16.3205 -13.1868 1.8336 45.1766 -16.3683 -26.5733 18.9834 -12.6854 -1.1411 -0.0000 0.0000 0.0000 -44.9556 -32.3898 -27.2379 68.2542 -58.1356 -41.2855 -0.0000 0.0000 -71.4250 -33.8526 37.6739 -22.2913 -7.1250 0.0000 -0.0000 -70.0522 54.6795 -25.6727 -0.0000 0.0000 0.0000 79.6357 8.5493 -8.7835 -17.8353 27.9458 -4.4718 0.0000 -0.0000 -5.2870 -39.5967 30.1224 -22.5442 7.1250 -0.0000 -0.0000 -4.7347 6.8862 -5.2854
0.4414 15.1334 -4.5060 186.8890 -19.4292 -165.6000 0.0000 0.0000 0.0000 -6.1214 -4.7151 -45.9270 11.6591 18.2428 64.9041 0.6553 -9.3352 -14.8908 1.2132 -6.9871 -19.6770 0.0000 0.0000 0.0000 20.2096 -10.0138 -45.5651 -11.5375 -18.1882 64.5151 -0.6261 -7.2519 -19.3129 -1.8704 8.5908 -24.5235 -6.0778 7.5104 33.6346 1.6324 4.8751 11.1884 3.3169 1.0729 -5.4046 -16.6364 -13.3530 2.1611 45.4252 -16.7571 -26.0920 19.0276 -12.8299 -0.8508 -0.0000 -0.0000 0.0000 -45.8434 -32.8160 -25.4719 74.5858 -59.0829 -46.6920 -0.0000 0.0000 -70.5904 -32.5585 38.0855 -21.4972 -7.1250 0.0000 -0.0000 -69.6346 55.1721 -26.3258 -0.0000 -0.0000 0.0000 80.2750 6.8423 -9.1292 -18.0582 28.2316 -4.5767 0.0000 -0.0000 -6.4067 -39.1222 29.7534 -21.9802 7.1250 -0.0000 -0.0000 -4.5643 6.3007 -5.0529
0.5777 15.0831 -4.6958 187.3610 -18.5311 -166.1540 0.0000 0.0000 0.0000 -5.3234 -4.1644 -44.3701 11.6872 18.2553 64.9938 0.9375 -8.0947 -17.3608 1.6353 -8.0612 -22.9000 0.0000 0.0000 0.0000 18.5817 -9.3013 -43.8697 -11.2791 -18.0690 63.6848 -0.5916 -7.5054 -19.1619 -2.2249 9.3196 -26.8004 -5.6596 7.4338 33.3918 1.7385 4.9418 11.1585 3.1994 1.1079 -5.3400 -16.9948 -13.3901 2.4829 45.4563 -16.9675 -25.5540 19.0331 -12.8471 -0.6408 -0.0000 0.0000 0.0000 -46.8298 -33.0831 -23.5439 81.4050 -59.7190 -52.5636 -0.0000 0.0000 -68.7813 -31.3294 38.0730 -20.5748 -7.1250 0.0000 -0.0000 -68.7266 55.4336 -26.1682 -0.0000 0.0000 0.0000 80.7157 5.0831 -8.8730 -18.5096 28.8048 -4.7923 0.0000 -0.0000 -7.7580 -39.1204 28.9017 -21.4578 7.1250 -0.0000 -0.0000 -4.7709 5.3458 -5.2121
